<?xml version="1.0" encoding="UTF-8"?>
<svg version="1.1" xmlns="http://www.w3.org/2000/svg" width="256" height="256">
<path d="M0 0 C3.01289798 2.69833918 5.92740806 5.49073259 8.83984375 8.296875 C9.48566406 8.87953125 10.13148438 9.4621875 10.796875 10.0625 C31.37125194 29.14318681 41.69427396 59.43318504 43.12109375 86.828125 C44.13501475 118.9824017 32.46595765 149.06910015 10.80859375 172.640625 C-7.0153967 191.45255657 -31.29125407 204.75255922 -57.16015625 208.296875 C-57.90523437 208.40644531 -58.6503125 208.51601562 -59.41796875 208.62890625 C-89.71815729 212.37892958 -121.61862178 204.64092361 -146.16015625 186.296875 C-150.74401757 182.55316599 -154.95761924 178.4577438 -159.16015625 174.296875 C-159.82273438 173.69488281 -160.4853125 173.09289062 -161.16796875 172.47265625 C-181.74058684 153.47886699 -192.01894796 123.07682416 -193.44140625 95.765625 C-194.45532725 63.6113483 -182.78627015 33.52464985 -161.12890625 9.953125 C-143.3049158 -8.85880657 -119.02905843 -22.15880922 -93.16015625 -25.703125 C-92.41507812 -25.81269531 -91.67 -25.92226563 -90.90234375 -26.03515625 C-58.8571037 -30.00115131 -24.60534221 -21.45351146 0 0 Z " fill="#4CF953" transform="translate(203.16015625,36.703125)"/>
<path d="M0 0 C3.0625 2.4375 3.0625 2.4375 5 5 C5.495 5.495 5.495 5.495 6 6 C6.55375548 11.64830585 5.43720417 14.68250616 2 19 C-0.31133778 21.57175107 -2.74464691 24.00806864 -5.19946289 26.44238281 C-6.27575706 27.52152451 -6.27575706 27.52152451 -7.37379456 28.62246704 C-9.73523094 30.98759356 -12.10376471 33.34546741 -14.47265625 35.703125 C-16.11921553 37.3484916 -17.76540469 38.99422867 -19.41123962 40.64031982 C-22.8554645 44.08298299 -26.30301618 47.52226712 -29.75317383 50.95898438 C-34.17917482 55.36796268 -38.59853114 59.7835285 -43.01564884 64.20140457 C-46.41162219 67.59710631 -49.81019312 70.99019795 -53.20965385 74.38240814 C-54.84056982 76.01013913 -56.47087836 77.63847897 -58.10057259 79.26743317 C-60.37452021 81.53921735 -62.65172732 83.80768092 -64.92993164 86.07519531 C-65.60481628 86.75053314 -66.27970093 87.42587097 -66.97503662 88.12167358 C-67.59602737 88.73839935 -68.21701813 89.35512512 -68.85682678 89.99053955 C-69.66343797 90.79463697 -69.66343797 90.79463697 -70.48634434 91.61497879 C-73.80774355 94.65411673 -76.33251981 95.56015145 -80.8339386 95.44517517 C-87.46993951 94.08132517 -93.17544871 87.12350963 -97.80078125 82.46484375 C-98.40383591 81.86370255 -99.00689056 81.26256134 -99.6282196 80.64320374 C-100.88847265 79.38429976 -102.14625175 78.12291458 -103.40161133 76.85913086 C-105.31825958 74.93170804 -107.24543592 73.01527454 -109.17382812 71.09960938 C-110.40428807 69.86782871 -111.63412794 68.63542826 -112.86328125 67.40234375 C-113.43516678 66.83450668 -114.00705231 66.26666962 -114.5962677 65.68162537 C-118.32994977 61.90390797 -121.628018 58.49759341 -122.4375 53.0625 C-121.8806713 49.16469912 -120.43417323 47.06010349 -118 44 C-114.33950469 41.55966979 -112.73674404 41.54722684 -108.5 42.171875 C-103.91450322 43.69082081 -100.92101131 46.98105515 -97.59423828 50.375 C-95.68458463 52.32150149 -93.746899 54.23828419 -91.80859375 56.15625 C-87.8506407 60.08278726 -83.91845708 64.03407745 -80 68 C-75.60729964 66.33610469 -72.83046979 63.02305494 -69.64599609 59.71435547 C-69.01773926 59.07032776 -68.38948242 58.42630005 -67.7421875 57.76275635 C-66.37942255 56.36562568 -65.01870497 54.96649574 -63.65980148 53.56560898 C-60.76589728 50.58764211 -57.85340367 47.62815755 -54.941782 44.66752815 C-49.5225695 39.15684876 -44.11091118 33.63931512 -38.73291016 28.08837891 C-34.98933859 24.22587944 -31.22167591 20.38838048 -27.43703079 16.56613541 C-26.00142455 15.10707037 -24.57492573 13.63898478 -23.15797043 12.16180038 C-21.1714487 10.09302729 -19.15560591 8.05764604 -17.13037109 6.02685547 C-16.26800339 5.10584549 -16.26800339 5.10584549 -15.38821411 4.16622925 C-10.7792128 -0.35394409 -6.36155614 -1.28010625 0 0 Z " fill="#A2FEA4" transform="translate(186,86)"/>
</svg>
